<svg xmlns="http://www.w3.org/2000/svg" height="30px" width="30px" fill="none" viewBox="0 0 20.43 32">
  <path fill-rule="evenodd" clip-rule="evenodd" d="M0 3a3 3 0 0 1 3-3h14.43a3 3 0 0 1 3 3v18a3 3 0 0 1-3 3h-1.92l-4.44 7.53a1 1 0 0 1-1.7 0L4.92 24H3a3 3 0 0 1-3-3Z" />
  <path class="plus" d="M4.22 12a1 1 0 0 1 1-1h4V7a1 1 0 1 1 2 0v4h4a1 1 0 1 1 0 2h-4v4a1 1 0 1 1-2 0v-4h-4a1 1 0 0 1-1-1z" fill="#000" />
  <path d="M0 3a3 3 0 0 1 3-3h14.43a3 3 0 0 1 3 3v18a3 3 0 0 1-3 3h-1.92l-4.44 7.53a1 1 0 0 1-1.7 0L4.92 24H3a3 3 0 0 1-3-3Zm3-1a1 1 0 0 0-1 1v18a1 1 0 0 0 1 1h2.47a1 1 0 0 1 .85.47l3.9 6.64 3.88-6.64a1 1 0 0 1 .85-.47h2.48a1 1 0 0 0 1-1V3a1 1 0 0 0-1-1z" fill="#000" />
</svg>
