<svg xmlns="http://www.w3.org/2000/svg" viewBox="0 0 26.46 26.46">
  <g fill="none">
    <path d="M8.63 13.47a39.14 39.14 0 001.34 1.44s-1.3.65-2.68 1.1c-1.4.45-3.42.31-3.42.31s.05 6.97.03 8.41c.47.07 19.16.03 19.16.03L23 16.18s-6.75-.32-9.47-1.68c-1.21-.6-2.8-3.16-2.8-3.16" stroke-linejoin="round"/>
    <path d="M1.74 6.7l4.37-4.8 7.75 5.75-5.7 6.08z" stroke-linecap="round" stroke-linejoin="round" />
    <path d="M11.67 8.53l2.34-5.3-.83-.68-2.36 2.84" stroke-linejoin="round"/>
    <g transform="matrix(1 0 0 .98193 0 -265.35)" stroke-width="0.5">
      <path d="M6.55 295.18v-7.65h14.1v7.72" />
      <path d="M17.1 287.55v7.7M10.02 287.57v7.63M13.51 287.53v7.84" />
      <path d="M6.52 290.53h14M6.5 293.34h14.05" />
      <path d="M7.02 287.98h2.54v2.12H7.02zM10.44 290.96h2.67v1.98h-2.67z" fill="#E4E1D2" />
      <rect y="293.75" x="13.94" height="1.67" width="2.73" ry="0" fill="#E4E1D2" />
    </g>
  </g>
</svg>
