<svg xmlns="http://www.w3.org/2000/svg" viewBox="0 0 100 100"><switch><g><path d="M73.4 73.3c-1.1-.1-2.1.2-2.9.9A31.7 31.7 0 0118.4 50v-1.9h4.3c1.3 0 2.4-.7 3.1-1.8.6-1.1.6-2.5-.1-3.5l-8.3-12.9c-.6-1-1.7-1.5-2.9-1.5s-2.3.6-2.9 1.5L3.1 42.8a3.4 3.4 0 00-.1 3.5 3.5 3.5 0 003.1 1.8h4.3V50a39.8 39.8 0 0065.5 30.3 4 4 0 00.5-5.7c-1-.7-1.9-1.3-3-1.3zM97.1 53.7a3.5 3.5 0 00-3.1-1.8h-4.3V50a39.8 39.8 0 00-65.5-30.4 4 4 0 00-.5 5.7 4 4 0 005.7.5A31.7 31.7 0 0181.5 50v1.8h-4.3c-1.3 0-2.4.7-3.1 1.8-.6 1.1-.6 2.5.1 3.5L82.5 70c.6 1 1.7 1.6 2.9 1.6s2.3-.6 2.9-1.6l8.3-12.9c1-1 1.1-2.3.5-3.4z"/></g></switch></svg>
