<?xml version="1.0" encoding="UTF-8" standalone="no"?>
<svg
   viewBox="-5 0 80 60"
   width="50"
   height="50"
   version="1.1"
   id="svg4"
   sodipodi:docname="repetition.svg"
   inkscape:version="1.1.1 (3bf5ae0d25, 2021-09-20)"
   xmlns:inkscape="http://www.inkscape.org/namespaces/inkscape"
   xmlns:sodipodi="http://sodipodi.sourceforge.net/DTD/sodipodi-0.dtd"
   xmlns="http://www.w3.org/2000/svg"
   xmlns:svg="http://www.w3.org/2000/svg">
  <defs
     id="defs8" />
  <sodipodi:namedview
     id="namedview6"
     pagecolor="#ffffff"
     bordercolor="#999999"
     borderopacity="1"
     inkscape:pageshadow="0"
     inkscape:pageopacity="0"
     inkscape:pagecheckerboard="0"
     showgrid="false"
     inkscape:zoom="16.744289"
     inkscape:cx="42.372657"
     inkscape:cy="31.503279"
     inkscape:window-width="3836"
     inkscape:window-height="2104"
     inkscape:window-x="1920"
     inkscape:window-y="26"
     inkscape:window-maximized="1"
     inkscape:current-layer="svg4" />
  <path
     fill-rule="evenodd"
     d="M48.4 50.3A9 9 0 0 1 36 42c0-1 .1-1.8.4-2.7A9 9 0 0 1 24 31c0-1 .1-1.8.4-2.7A9 9 0 0 1 12 20c0-1 .1-1.8.4-2.7A9 9 0 0 1 0 9a9 9 0 1 1 17.6 2.7A9 9 0 0 1 30 20a9 9 0 0 1-.4 2.7A9 9 0 0 1 42 31a9 9 0 0 1-.4 2.7A9 9 0 0 1 54 42a9 9 0 0 1-.4 2.7A9 9 0 0 1 66 53a9 9 0 1 1-17.6-2.7zM21 27a7 7 0 1 0 0-14 7 7 0 0 0 0 14zm24 22a7 7 0 1 0 0-14 7 7 0 0 0 0 14z"
     id="path2" />
</svg>
