<svg xmlns="http://www.w3.org/2000/svg" viewBox="0 0 317 317" width="317" height="317"><path d="M317.6 230.7V301a16 16 0 01-.5 3.9 15.1 15.1 0 01-14.7 12.1H15.1A15 15 0 01.2 303.6c-.2-.9-.2-1.7-.2-2.7v-70.3A15 15 0 0125.6 220a15 15 0 014.4 10.6v56.3h257.7v-56.3a15 15 0 0125.6-10.6c2.6 2.8 4.3 6.6 4.3 10.7z"/><path d="M245.3 160.3L171.6 234l-.4.4a17.4 17.4 0 01-9.7 4.9l-.9.1-1.8.1-1.7-.1-.9-.1a17 17 0 01-9.7-4.9l-.4-.4-73.7-73.7a17.5 17.5 0 010-24.8 17.6 17.6 0 0124.8 0l44.3 44.3V17.5a17.6 17.6 0 0129.9-12.4c3.2 3.2 5.1 7.5 5.1 12.4v162.3l44.3-44.3a17.6 17.6 0 0124.8 0 18 18 0 01-.3 24.8z"/></svg>
