<svg xmlns="http://www.w3.org/2000/svg" viewBox="0 0 55.213 85.096"><path d="M41.563 6.96a1.506 1.506 0 000-2.123 1.513 1.513 0 00-2.122 0l-1.357 1.357-2.276-2.275 1.357-1.358a1.505 1.505 0 000-2.12 1.497 1.497 0 00-2.12 0L6.305 29.176c-.063.063-.12.134-.17.197-1.259 1.4-1.746 3.345-1.266 5.155a5.385 5.385 0 001.45 2.481l.077.078 10.925 10.953L.437 64.928a1.505 1.505 0 000 2.121 1.499 1.499 0 002.122 0l1.357-1.357L6.2 67.975l-1.357 1.358a1.496 1.496 0 000 2.121 1.497 1.497 0 002.121 0l1.357-1.357 2.277 2.277-1.357 1.357a1.504 1.504 0 000 2.121 1.497 1.497 0 002.121 0l1.357-1.357 2.285 2.284-1.357 1.357a1.496 1.496 0 000 2.121 1.497 1.497 0 002.121 0l1.357-1.357 2.283 2.284-1.357 1.357a1.495 1.495 0 00-.008 2.113 1.514 1.514 0 002.13.008L48.9 55.933c1.33-1.329 1.896-3.663 1.443-5.36a5.629 5.629 0 00-1.436-2.496l-11.02-11.023 16.885-16.886a1.497 1.497 0 000-2.12 1.506 1.506 0 00-2.122-.002l-1.357 1.357-2.277-2.276 1.358-1.357a1.505 1.505 0 00-.008-2.128 1.503 1.503 0 00-2.114.006l-1.357 1.357-2.284-2.283 1.358-1.357a1.505 1.505 0 000-2.12 1.504 1.504 0 00-2.122 0L42.49 10.6l-2.284-2.284zM11.914 38.39c1.626-.494 4.49-1.846 7.538-3.295 2.793-1.322 5.953-2.828 7.254-3.168a2.576 2.576 0 012.228.445c.425.34.75.807.898 1.365.212.764.092 1.704-.835 2.631l-9.553 9.553zm1.91 28.511h4.37l.006 4.377c0 .396.155.778.438 1.062.275.275.665.438 1.061.438l4.362-.007.008 3.755-2.539 2.538L6.038 63.57l2.538-2.539h3.747v4.37c.008.403.164.785.44 1.061.282.283.663.44 1.06.44zm4.95-4.95h4.37l.005 4.376c0 .396.156.778.44 1.062.274.275.663.438 1.06.438l4.362-.007.007 3.756-1.95 1.951v-2.263c0-.396-.157-.778-.439-1.06a1.51 1.51 0 00-1.06-.439l-4.363.007-.008-4.377a1.51 1.51 0 00-1.5-1.499H15.33l.007-4.363a1.541 1.541 0 00-.445-1.068 1.535 1.535 0 00-1.06-.438l-2.256.007 1.951-1.95 3.747-.002v4.37c.001.396.163.785.438 1.062a1.51 1.51 0 001.062.437zm28.015-11.753c.317.318.544.714.65 1.146.211.764.105 1.705-.828 2.64L32.017 68.575v-2.263c0-.396-.156-.778-.439-1.06a1.52 1.52 0 00-1.062-.439l-4.362.007v-4.37a1.523 1.523 0 00-1.507-1.507h-4.37l.008-4.362a1.541 1.541 0 00-.445-1.068 1.538 1.538 0 00-1.06-.438l-2.257.007 14.764-14.765a5.488 5.488 0 001.365-2.256zM35.764 34.933l-4.278-4.279c-1.336-1.336-3.23-2.24-5.544-1.625-1.568.41-4.588 1.845-7.785 3.358-2.785 1.33-5.96 2.835-7.262 3.175a2.559 2.559 0 01-2.468-.658 2.558 2.558 0 01-.657-1.152c-.234-.869-.007-1.789.842-2.637l14.58-14.58v2.248a1.51 1.51 0 001.5 1.5h4.368v4.37c0 .82.672 1.491 1.5 1.497h4.37v4.371c0 .82.671 1.492 1.5 1.5h2.247zm5.911-5.912H37.928v-4.37a1.491 1.491 0 00-1.499-1.499h-4.37v-4.369a1.462 1.462 0 00-.438-1.06 1.458 1.458 0 00-1.06-.44h-4.37v-3.747l1.95-1.95v2.248a1.509 1.509 0 001.5 1.498h4.37v4.37a1.51 1.51 0 001.498 1.5h4.37v4.37c0 .82.672 1.491 1.5 1.498h2.248zm7.496-7.495l-2.539 2.54-3.006.006h-.748v-4.37a1.49 1.49 0 00-1.499-1.499h-4.37v-4.37a1.46 1.46 0 00-.439-1.06 1.459 1.459 0 00-1.06-.439h-4.37V8.586l2.546-2.545 13.208 13.207z"/></svg>
