<svg xmlns="http://www.w3.org/2000/svg" viewBox="0 0 39.34 59.97"><path d="m39.31 14.9-1-4.89a1 1 0 0 0-.56-.7 1 1 0 0 0-.89 0l-4.44 2.39a1 1 0 0 0-.44.46l-4.18 9V1a1 1 0 0 0-1-1h-12a1 1 0 0 0-1 1v19.89L9.12 8.65a3 3 0 0 0-3.87-1.73l-1.86.71a3 3 0 0 0-1.67 1.58 3 3 0 0 0-.07 2.3l1.78 4.67-2.8 1.07a1 1 0 0 0-.56.52 1.08 1.08 0 0 0 0 .77l2.14 5.6a1 1 0 0 0 .94.64 1.13 1.13 0 0 0 .36-.06 1 1 0 0 0 .57-1.29L2.3 18.76 4.14 18l4.2 11h-.25a3 3 0 0 0-2.29 1 3 3 0 0 0-.7 2.38l3.44 25a3 3 0 0 0 3 2.59h18.52a3 3 0 0 0 3-2.59l3.45-25a3 3 0 0 0-.7-2.38 3 3 0 0 0-2.27-1h-.56l6.3-13.47a1 1 0 0 0 .03-.63ZM15.81 2h10v3h-1a1 1 0 0 0 0 2h1v3h-3a1 1 0 0 0 0 2h3v3h-1a1 1 0 0 0 0 2h1v3h-3a1 1 0 0 0 0 2h3v3h-1a1 1 0 0 0 0 2h1v2h-8.9l-1.1-2.88ZM3.5 10.8a1 1 0 0 1 0-.77 1 1 0 0 1 .56-.53l1.86-.71a1 1 0 0 1 1.3.58L9.04 14 5.3 15.46Zm2.5 6.53 3.8-1.43 5 13.1h-4.34ZM30.06 58H11.54a1 1 0 0 1-1-.86L10.12 54h21.36l-.43 3.14a1 1 0 0 1-.99.86Zm4.2-26.66a1 1 0 0 1 .24.8L31.8 52h-22L7.1 32.14a1 1 0 0 1 .24-.8A1 1 0 0 1 8.1 31h25.42a1 1 0 0 1 .75.34zM30.74 29H27.8v-3.16l5.86-12.54 2.94-1.57.68 3.27Z"/></svg>
