<svg xmlns="http://www.w3.org/2000/svg" viewBox="0 0 64.84 64.62"><path d="M58.32 6.52c7.43 7.44 8.62 15.86 3.02 21.46-4.3 4.3-13.4 4.34-17.6 4.1L32.1 43.72c.23 4.3.12 13.17-4.1 17.4-5.6 5.6-14.03 4.4-21.46-3.03C-.9 50.65-2.1 42.23 3.51 36.63c4.22-4.23 13.1-4.33 17.4-4.1l11.83-11.85c-.2-4.36-.04-13.02 4.12-17.18 5.6-5.6 14.02-4.4 21.46 3.02zm.9 19.34a8.46 8.46 0 002.41-8.03 13.9 13.9 0 00-1.55-4.09c-.39 3.87-1.4 9.5-3.99 14a8.8 8.8 0 003.13-1.88zm-1.9-16c-.35-.4-.73-.82-1.13-1.2v-.02a24.22 24.22 0 00-1.63-1.48c-.26 4.84-1.4 15.07-6.3 21.95 1.14-.05 2.27-.14 3.36-.3 4.34-4.7 5.62-13.8 5.7-18.96zM44.4 29.1c5.58-5.95 7.18-17.64 7.25-24.06a16.83 16.83 0 00-2.9-1.36c-.24 4.87-1.4 16.12-6.96 23.16l2.24 2.24.37.02zm1.37-26.07a8.36 8.36 0 00-8.23 4.71c2.51-.96 5.28-1.8 8.1-2.26.06-.86.11-1.68.13-2.45zm-1.09 9.12c.25-1.2.45-2.4.61-3.55a44.36 44.36 0 00-8.96 2.86 30.45 30.45 0 00-.47 3.28 43.33 43.33 0 018.82-2.59zm-1.59 5.81c.3-.84.57-1.7.82-2.57-2.82.6-5.63 1.57-8.22 2.68 0 .75.01 1.5.04 2.21a46.37 46.37 0 017.36-2.32zm-12.06 22.6l10.11-10.13-6.96-6.95-10.1 10.11L31 40.56zm8.6-15.88c.75-1 1.42-2.09 2.01-3.27-1.34.38-2.67.83-3.96 1.32zM29.16 46.53c0-.74 0-1.48-.04-2.2a44.98 44.98 0 01-7.36 2.31c-.3.85-.57 1.7-.8 2.57 2.8-.6 5.61-1.57 8.2-2.68zm-.64 6.61c.22-1.05.37-2.15.48-3.27a43.7 43.7 0 01-8.83 2.59 54.3 54.3 0 00-.6 3.54 43.9 43.9 0 008.95-2.86zm-.69-11.53l-2.2-2.2a20.16 20.16 0 00-2.42 3.78c1.57-.44 3.12-.98 4.62-1.58zM25.87 59a7.81 7.81 0 001.44-2.13 41.6 41.6 0 01-8.09 2.26c-.07.87-.1 1.68-.14 2.45a8.4 8.4 0 006.8-2.58zm-2.39-21.73l-1.73-1.73c-.12.02-.24.03-.37.03l-.92-.06c-5.58 5.95-7.18 17.65-7.25 24.06a16 16 0 002.9 1.36c.24-4.98 1.46-16.67 7.37-23.66zm-6.9-1.76c-1.13.05-2.26.15-3.36.3-4.33 4.7-5.62 13.81-5.7 18.96.36.41.73.81 1.13 1.2v.01c.53.53 1.08 1.02 1.63 1.48.27-4.84 1.41-15.07 6.3-21.95zM4.76 50.88c.4-3.88 1.41-9.5 4-14a8.8 8.8 0 00-3.13 1.87 8.47 8.47 0 00-2.42 8.03c.26 1.33.8 2.72 1.55 4.1z"/></svg>
